<svg width="42" height="40" viewBox="0 0 42 40" fill="none" xmlns="http://www.w3.org/2000/svg">
<path d="M8.73804 12.264C8.73804 5.502 14.238 0 21 0C27.763 0 33.265 5.502 33.265 12.264C33.265 13.052 33.183 13.82 33.038 14.567C31.979 14.295 30.878 14.134 29.737 14.134C26.389 14.134 23.337 15.391 20.999 17.445C18.663 15.391 15.61 14.134 12.263 14.134C11.12 14.134 10.019 14.294 8.96204 14.567C8.82004 13.82 8.73804 13.052 8.73804 12.264Z" fill="black"/>
<path d="M24.5251 27.3959C24.5251 30.7399 23.1771 33.7709 21.0001 35.9859C18.8241 33.7709 17.4771 30.7399 17.4771 27.3959C17.4771 26.6089 17.5591 25.8399 17.7021 25.0929C18.7591 25.3639 19.8601 25.5269 21.0011 25.5269C22.1441 25.5269 23.2461 25.3669 24.3021 25.0929C24.4431 25.8409 24.5251 26.6089 24.5251 27.3959Z" fill="black"/>
<path d="M21 24.527C19.938 24.527 18.916 24.378 17.934 24.123C18.498 22.093 19.563 20.269 21 18.809C22.439 20.272 23.503 22.093 24.068 24.123C23.086 24.377 22.063 24.527 21 24.527Z" fill="black"/>
<path d="M16.978 23.8339C13.205 22.5179 10.273 19.4149 9.19702 15.5379C10.179 15.2829 11.203 15.1339 12.265 15.1339C15.324 15.1339 18.119 16.2679 20.271 18.1279C18.729 19.7009 17.586 21.6539 16.978 23.8339Z" fill="black"/>
<path d="M21.7321 18.1279C23.8821 16.2679 26.6771 15.1339 29.7381 15.1339C30.7991 15.1339 31.8241 15.2829 32.8061 15.5379C31.7281 19.4149 28.7961 22.5169 25.0251 23.8339C24.4161 21.6539 23.2731 19.7009 21.7321 18.1279Z" fill="black"/>
<path d="M0 27.3959C0 22.0449 3.451 17.4969 8.238 15.8259C9.416 20.0389 12.619 23.4059 16.734 24.8089C16.566 25.6459 16.476 26.5099 16.476 27.3959C16.476 31.0009 17.925 34.2709 20.268 36.6659C18.117 38.5249 15.322 39.6599 12.263 39.6599C5.502 39.6579 0 34.1579 0 27.3959Z" fill="black"/>
<path d="M29.7381 39.6579C26.6771 39.6579 23.8831 38.5249 21.7321 36.6649C24.0761 34.2709 25.5251 31.002 25.5251 27.396C25.5251 26.509 25.4351 25.6459 25.2671 24.8069C29.3821 23.4039 32.5851 20.036 33.7631 15.825C38.5511 17.497 42.0001 22.046 42.0001 27.396C42.0001 34.158 36.5001 39.6579 29.7381 39.6579Z" fill="black"/>
</svg>
